<mxfile host="app.diagrams.net" modified="2023-03-23T08:56:19.170Z" agent="5.0 (Windows NT 10.0; Win64; x64) AppleWebKit/537.36 (KHTML, like Gecko) Chrome/110.0.0.0 Safari/537.36" etag="dBFqbil72OdEjnf1e8fj" version="21.0.10" type="github">
  <diagram name="Strona-1" id="oYOn32jb-YbxOVPgWVRf">
    <mxGraphModel dx="1050" dy="581" grid="1" gridSize="10" guides="1" tooltips="1" connect="1" arrows="1" fold="1" page="1" pageScale="1" pageWidth="827" pageHeight="1169" math="0" shadow="0">
      <root>
        <mxCell id="0" />
        <mxCell id="1" parent="0" />
        <mxCell id="r5TLd3iiSMGgfJyqdTQP-1" value="Start" style="ellipse;whiteSpace=wrap;html=1;" vertex="1" parent="1">
          <mxGeometry x="360" y="80" width="120" height="80" as="geometry" />
        </mxCell>
        <mxCell id="r5TLd3iiSMGgfJyqdTQP-2" value="" style="endArrow=classic;html=1;rounded=0;exitX=0.5;exitY=1;exitDx=0;exitDy=0;" edge="1" parent="1" source="r5TLd3iiSMGgfJyqdTQP-1">
          <mxGeometry width="50" height="50" relative="1" as="geometry">
            <mxPoint x="390" y="330" as="sourcePoint" />
            <mxPoint x="420" y="210" as="targetPoint" />
          </mxGeometry>
        </mxCell>
        <mxCell id="r5TLd3iiSMGgfJyqdTQP-4" value="" style="endArrow=classic;html=1;rounded=0;exitX=0.5;exitY=1;exitDx=0;exitDy=0;" edge="1" parent="1">
          <mxGeometry width="50" height="50" relative="1" as="geometry">
            <mxPoint x="420" y="270" as="sourcePoint" />
            <mxPoint x="420" y="290" as="targetPoint" />
          </mxGeometry>
        </mxCell>
        <mxCell id="r5TLd3iiSMGgfJyqdTQP-7" value="" style="edgeStyle=orthogonalEdgeStyle;rounded=0;orthogonalLoop=1;jettySize=auto;html=1;" edge="1" parent="1" source="r5TLd3iiSMGgfJyqdTQP-6">
          <mxGeometry relative="1" as="geometry">
            <mxPoint x="420" y="290" as="targetPoint" />
          </mxGeometry>
        </mxCell>
        <mxCell id="r5TLd3iiSMGgfJyqdTQP-6" value="Podaj a" style="shape=parallelogram;perimeter=parallelogramPerimeter;whiteSpace=wrap;html=1;fixedSize=1;" vertex="1" parent="1">
          <mxGeometry x="360" y="210" width="120" height="50" as="geometry" />
        </mxCell>
        <mxCell id="r5TLd3iiSMGgfJyqdTQP-8" value="Podaj b" style="shape=parallelogram;perimeter=parallelogramPerimeter;whiteSpace=wrap;html=1;fixedSize=1;" vertex="1" parent="1">
          <mxGeometry x="360" y="290" width="120" height="60" as="geometry" />
        </mxCell>
        <mxCell id="r5TLd3iiSMGgfJyqdTQP-9" value="" style="endArrow=classic;html=1;rounded=0;exitX=0.5;exitY=1;exitDx=0;exitDy=0;" edge="1" parent="1" source="r5TLd3iiSMGgfJyqdTQP-8">
          <mxGeometry width="50" height="50" relative="1" as="geometry">
            <mxPoint x="390" y="330" as="sourcePoint" />
            <mxPoint x="420" y="400" as="targetPoint" />
            <Array as="points">
              <mxPoint x="420" y="390" />
            </Array>
          </mxGeometry>
        </mxCell>
        <mxCell id="r5TLd3iiSMGgfJyqdTQP-10" value="suma:=a+b" style="rounded=0;whiteSpace=wrap;html=1;" vertex="1" parent="1">
          <mxGeometry x="360" y="400" width="120" height="60" as="geometry" />
        </mxCell>
        <mxCell id="r5TLd3iiSMGgfJyqdTQP-11" value="Pisz:Suma" style="shape=parallelogram;perimeter=parallelogramPerimeter;whiteSpace=wrap;html=1;fixedSize=1;" vertex="1" parent="1">
          <mxGeometry x="360" y="500" width="120" height="60" as="geometry" />
        </mxCell>
        <mxCell id="r5TLd3iiSMGgfJyqdTQP-12" value="" style="endArrow=classic;html=1;rounded=0;" edge="1" parent="1">
          <mxGeometry width="50" height="50" relative="1" as="geometry">
            <mxPoint x="390" y="330" as="sourcePoint" />
            <mxPoint x="440" y="280" as="targetPoint" />
          </mxGeometry>
        </mxCell>
        <mxCell id="r5TLd3iiSMGgfJyqdTQP-13" value="" style="endArrow=classic;html=1;rounded=0;exitX=0.5;exitY=1;exitDx=0;exitDy=0;entryX=0.5;entryY=0;entryDx=0;entryDy=0;" edge="1" parent="1" source="r5TLd3iiSMGgfJyqdTQP-10" target="r5TLd3iiSMGgfJyqdTQP-11">
          <mxGeometry width="50" height="50" relative="1" as="geometry">
            <mxPoint x="414" y="490" as="sourcePoint" />
            <mxPoint x="464" y="440" as="targetPoint" />
          </mxGeometry>
        </mxCell>
        <mxCell id="r5TLd3iiSMGgfJyqdTQP-14" value="" style="endArrow=classic;html=1;rounded=0;exitX=0.5;exitY=1;exitDx=0;exitDy=0;" edge="1" parent="1" source="r5TLd3iiSMGgfJyqdTQP-11" target="r5TLd3iiSMGgfJyqdTQP-15">
          <mxGeometry width="50" height="50" relative="1" as="geometry">
            <mxPoint x="390" y="630" as="sourcePoint" />
            <mxPoint x="420" y="600" as="targetPoint" />
          </mxGeometry>
        </mxCell>
        <mxCell id="r5TLd3iiSMGgfJyqdTQP-15" value="Stop" style="ellipse;whiteSpace=wrap;html=1;" vertex="1" parent="1">
          <mxGeometry x="360" y="600" width="120" height="80" as="geometry" />
        </mxCell>
      </root>
    </mxGraphModel>
  </diagram>
</mxfile>
